# xmcd
#
# Track frame offsets: 
#        150
#        17686
#        30252
#        47005
#        64400
#        78917
#        96399
#        111849
#        124687
#        138867
#
# Disc length: 2040 seconds
#
# Revision: 0
# Processed by: cddbd v1.5.1PL0 Copyright (c) Steve Scherf et al.
# Submitted via: ExactAudioCopy v0.95b2
#
DISCID=7b07f60a
DTITLE=Гоман Алексей - Русский Парень
DYEAR=2004
DGENRE=Pop
TTITLE0=Дом Родной
TTITLE1=Не Лги
TTITLE2=Вертится - Сбудется
TTITLE3=Дождь (дуэт с М.Зайцевой)
TTITLE4=Не Плачь
TTITLE5=Жестокая Девчонка
TTITLE6=Я Ищу Тебя
TTITLE7=Луна И Текила
TTITLE8=Я Буду Солнечным Днём
TTITLE9=Русский Парень
EXTD=
EXTT0=
EXTT1=
EXTT2=
EXTT3=
EXTT4=
EXTT5=
EXTT6=
EXTT7=
EXTT8=
EXTT9=
PLAYORDER=
